<svg id="Acorn_Logo_type_graphic" data-name="Acorn Logo type graphic" xmlns="http://www.w3.org/2000/svg" viewBox="0 0 12.78 19.84"><defs><style>.cls-1{fill:#020202;}</style></defs><title>Acorn logo</title><path class="cls-1" d="M88.23,42.06c0,.09,0,.18,0,.26s0,.24,0,.36C88.29,42.46,88.26,42.25,88.23,42.06Z" transform="translate(-76.91 -34.81)"/><path class="cls-1" d="M88.41,43.51c0-.26,0-.55-.09-.83h0c0-.12,0-.23,0-.36l0-.21c0-.1,0-.19,0-.28,0-.26-.09-.52-.15-.79-.1-.43-.21-.86-.34-1.29,0-.15-.09-.29-.15-.45l0,.08v0c0-.1-.07-.21-.11-.31s-.12-.33-.19-.49,0,0,0-.06a.14.14,0,0,0,0-.06l0-.1-.06-.13,0-.05v0c0-.13-.12-.26-.18-.39l0,0s0,0,0-.06l0-.07a.83.83,0,0,1-.07-.13l-.07-.13-.08-.11a3,3,0,0,0-.24-.38.76.76,0,0,0-.08-.11.61.61,0,0,0-.07-.1l-.16-.21-.09-.1-.07-.08,0-.05,0,0c-.11-.12-.22-.23-.34-.34l-.1-.09,0,0-.24-.19a3.66,3.66,0,0,0-.79-.45L84.07,35h0L84,35l-.25-.07h-.13l-.08,0h.07l-.17,0H82.07L82,35h-.1l0,0-.13,0,0,0,0,0-.15.06s0,0,0,0l-.09,0-.08,0-.15.07-.09.05-.11.06,0,0,0,0-.05,0h0l-.11.07h0l-.07.05,0,0h0l0,0-.21.17-.15.13,0,0,0,.05-.09.08-.12.12c-.07.08-.14.15-.21.24a4.71,4.71,0,0,0-.49.66,4,4,0,0,0-.22.34l-.21.39c-.07.13-.13.26-.19.4l-.18.37c-.18.42-.32.84-.46,1.27s-.24.86-.34,1.29-.17.87-.23,1.28-.1.82-.13,1.19a5.4,5.4,0,0,0,0,.56h0v0c0,.16,0,.32,0,.45h11s0-.26-.08-1.07m-.18-1.46Z" transform="translate(-76.91 -34.81)"/><path class="cls-1" d="M89.51,54,83.8,51.74l-.13,0h.11l-.15-.06-.14-.09,0,0h0l0-.05h0V51h0a.11.11,0,0,1,0,0h0v0a.15.15,0,0,1,0-.07h0l0,0,0,0h0l.19,0,.12,0H84l.29-.07.07,0h0l.29-.09.06,0,.06,0,.28-.11,0,0h0l.08,0,.24-.11,0,0,0,0,.07,0,.23-.12,0,0,.07,0,.06,0,.22-.14h0l.07,0,.06,0,.31-.22.08-.06a3,3,0,0,0,.28-.24l.08-.06.27-.26.07-.07.25-.29,0-.06.24-.32,0,0L88,48h0l0,0,0,0,.1-.18,0,0v0l.06-.12,0-.07.06-.14,0-.06h0v0s0-.08,0-.12a.56.56,0,0,0,0-.12.49.49,0,0,0,0-.11s0-.09,0-.14a.36.36,0,0,0,0-.1.94.94,0,0,0,0-.16s0-.06,0-.09,0,0,0-.06h0s0-.07,0-.1a.22.22,0,0,1,0-.08c0-.06,0-.13,0-.2v-.06a.66.66,0,0,1,0-.14v0s0-.09,0-.14h0v0h0s0,0,0,0,0,0,0,0h0v0l0,0h0l0,0H77.34l0,0h0l0,0,0,0h0a.08.08,0,0,1,0,0h0s0,0,0,.07c0,3,3.07,4.82,5.13,5.12h0a.18.18,0,0,1,.13.2h0v.38l-.18-.05L77.2,50.06a.23.23,0,0,0-.28.12c0,.09,0,.19.18.25a63.28,63.28,0,0,1,10.74,4c.43.23.42.24.68.15l.92-.35C89.73,54.15,89.79,54.12,89.51,54Zm-5.85-2.34h0Z" transform="translate(-76.91 -34.81)"/></svg>